<svg width="90" height="90" viewBox="0 0 90 90" fill="none" xmlns="http://www.w3.org/2000/svg">
<circle cx="45" cy="45" r="45" fill="#075985"/>
<path d="M34.9208 46.4828C37.5857 46.4828 40.142 45.4355 42.0265 43.5712C43.9108 41.7074 44.9695 39.1788 44.9695 36.5428C44.9695 33.9064 43.9108 31.3782 42.0265 29.514C40.1419 27.6497 37.5856 26.6025 34.9208 26.6025C32.2554 26.6025 29.6996 27.6497 27.815 29.514C25.9303 31.3783 24.8716 33.9065 24.8716 36.5428C24.8738 39.1781 25.9333 41.7052 27.8176 43.569C29.7015 45.4325 32.2562 46.4806 34.9208 46.4828ZM34.9208 29.9469C36.6892 29.9469 38.3852 30.6418 39.6359 31.8787C40.8863 33.1159 41.5889 34.7936 41.5889 36.5432C41.5889 38.2925 40.8863 39.9701 39.6359 41.2073C38.3852 42.4441 36.6891 43.1391 34.9208 43.1391C33.152 43.1391 31.456 42.4442 30.2056 41.2073C28.9548 39.9701 28.2522 38.2924 28.2522 36.5432C28.2545 34.7942 28.9578 33.1177 30.2078 31.8813C31.4578 30.6449 33.1527 29.9491 34.9208 29.9469ZM58.3237 40.1291C60.5856 40.1291 62.7548 39.2404 64.3538 37.6584C65.9533 36.0766 66.8515 33.931 66.8515 31.6939C66.8515 29.4565 65.9532 27.3108 64.3538 25.7291C62.7548 24.147 60.5856 23.2584 58.3237 23.2584C56.0621 23.2584 53.893 24.1471 52.2939 25.7291C50.6945 27.3108 49.7962 29.4565 49.7962 31.6939C49.7984 33.9302 50.6976 36.0744 52.2962 37.6561C53.8953 39.2374 56.0629 40.1268 58.3237 40.1291ZM58.3237 26.6029C59.6888 26.6029 60.9981 27.1392 61.9632 28.0942C62.9287 29.0489 63.4709 30.344 63.4709 31.6943C63.4709 33.0446 62.9287 34.3394 61.9632 35.2944C60.998 36.2491 59.6888 36.7854 58.3237 36.7854C56.9586 36.7854 55.6497 36.2491 54.6841 35.2944C53.719 34.3394 53.1768 33.0446 53.1768 31.6943C53.1768 30.344 53.719 29.0489 54.6841 28.0942C55.6497 27.1391 56.9586 26.6029 58.3237 26.6029ZM18.2125 64.875C18.6529 60.9984 20.4567 57.3983 23.3088 54.7043C26.1609 52.0105 29.88 50.3944 33.815 50.1384C37.7499 49.8823 41.6509 51.0031 44.835 53.3048C46.056 49.1531 49.16 45.7993 53.2334 44.2314C57.3069 42.6632 61.8858 43.0591 65.6231 45.3022C69.36 47.5456 71.829 51.3808 72.3033 55.6793C72.3554 56.1234 72.2256 56.5694 71.943 56.918C71.6604 57.267 71.2484 57.489 70.799 57.5353H70.6129C70.1949 57.5379 69.7912 57.3871 69.4788 57.1125C69.1667 56.8374 68.9687 56.4582 68.9226 56.0473C68.5261 52.5876 66.4309 49.5432 63.3219 47.9104C60.2129 46.2775 56.4901 46.266 53.3702 47.879C50.2506 49.4925 48.1359 52.523 47.7171 55.9805C49.8866 58.4931 51.2438 61.5916 51.6135 64.8755C51.6656 65.317 51.5384 65.7608 51.2592 66.109C50.98 66.4572 50.5721 66.6811 50.1258 66.7315H49.9398H49.9402C49.5221 66.7341 49.118 66.5833 48.806 66.3087C48.494 66.0336 48.2955 65.6544 48.2499 65.2435C47.7303 60.9011 45.0828 57.0905 41.1709 55.0547C37.2589 53.0184 32.5842 53.0184 28.6721 55.0547C24.7601 57.0906 22.1126 60.9011 21.593 65.2435C21.5266 65.8407 21.1429 66.3576 20.5868 66.5994C20.0306 66.8412 19.3861 66.7711 18.8964 66.4154C18.4067 66.0601 18.146 65.473 18.2124 64.8755L18.2125 64.875Z" fill="white"/>
</svg>
