<svg width="90" height="90" viewBox="0 0 90 90" fill="none" xmlns="http://www.w3.org/2000/svg">
<circle cx="45" cy="45" r="45" fill="#075985"/>
<path d="M62.6977 54.3431C65.284 56.9294 65.284 61.1226 62.6977 63.709C60.1114 66.2953 55.9181 66.2953 53.3318 63.709C50.7455 61.1227 50.7455 56.9294 53.3318 54.3431C55.9182 51.7568 60.1114 51.7568 62.6977 54.3431Z" stroke="white" stroke-width="3.38653"/>
<path d="M35.6569 27.3023C38.2432 29.8886 38.2432 34.0818 35.6569 36.6681C33.0706 39.2544 28.8774 39.2544 26.2911 36.6681C23.7048 34.0818 23.7048 29.8886 26.2911 27.3023C28.8774 24.716 33.0706 24.716 35.6569 27.3023Z" stroke="white" stroke-width="3.38653"/>
<path d="M25.6259 64.3742L63.8267 26.1733" stroke="white" stroke-width="3.39296" stroke-linecap="round"/>
</svg>
