<svg width="90" height="90" viewBox="0 0 90 90" fill="none" xmlns="http://www.w3.org/2000/svg">
<circle cx="45" cy="45" r="45" fill="#075985"/>
<path d="M19.9687 51.6071L26.2098 47.2174C27.8397 46.4275 29.7083 46.2822 31.4407 46.811L51.6792 52.9468C52.4736 53.1802 52.9638 53.975 52.816 54.79C52.6683 55.6044 51.9297 56.1767 51.104 56.1161L38.3688 55.31C38.0396 55.2885 37.7153 55.3985 37.4678 55.6162C37.2198 55.8339 37.0687 56.141 37.0471 56.4702C37.0026 57.156 37.5221 57.7479 38.2074 57.7925L50.9626 58.5991H51.2218L51.2223 58.5986C52.5459 58.6005 53.7894 57.9637 54.5613 56.888C55.3332 55.8124 55.5381 54.43 55.112 53.1768C54.6865 51.9231 53.6818 50.9521 52.4144 50.5697L32.1759 44.4338C29.801 43.7099 27.2389 43.9231 25.0162 45.0296L24.8547 45.1279L18.733 49.4407L13.1229 50.7873L13.1234 50.7868C12.7966 50.8548 12.5114 51.0515 12.3314 51.3318C12.1509 51.6125 12.0917 51.954 12.1661 52.2792C12.2404 52.604 12.4425 52.8858 12.7267 53.0599C13.0113 53.2345 13.3537 53.2869 13.6771 53.2062L19.5185 51.8038C19.6799 51.7691 19.8325 51.7021 19.9675 51.6072L19.9687 51.6071Z" fill="white"/>
<path d="M76.9025 50.8921C76.3889 49.8634 75.5191 49.0563 74.4552 48.6204C73.3913 48.1841 72.2051 48.1494 71.1173 48.5221L58.2282 52.9606C57.9151 53.0658 57.6578 53.2918 57.5125 53.5887C57.3677 53.8851 57.3477 54.227 57.4568 54.5386C57.6823 55.1848 58.3862 55.5286 59.0343 55.31L71.9297 50.871C72.6449 50.6367 73.4295 50.7751 74.0208 51.2398C74.6127 51.7045 74.9331 52.4338 74.8749 53.1836C74.8172 53.934 74.3882 54.6052 73.7322 54.9734L50.2755 67.6447C48.8883 68.3936 47.2414 68.4938 45.7734 67.9181C24.5469 59.6011 23.8945 59.6153 23.4951 59.6085C23.3253 59.6139 23.159 59.652 23.0039 59.7205L17.2114 62.3223C16.5863 62.603 16.3069 63.3377 16.5877 63.9629C16.8685 64.5885 17.6027 64.8678 18.2284 64.5871L23.635 62.1678C25.1005 62.6168 31.2926 64.9237 44.869 70.2392H44.8695C47.0149 71.0899 49.4273 70.9431 51.4539 69.8396L74.9182 57.1608C75.9982 56.5778 76.8093 55.5976 77.1796 54.428C77.5498 53.2579 77.4505 51.9895 76.9027 50.8915L76.9025 50.8921Z" fill="white"/>
<path d="M52.3189 30.3745C52.3189 32.8862 50.2827 34.9223 47.771 34.9223C45.2593 34.9223 43.2231 32.8862 43.2231 30.3745C43.2231 27.8628 45.2593 25.8266 47.771 25.8266C50.2827 25.8266 52.3189 27.8628 52.3189 30.3745Z" stroke="white" stroke-width="2.32559"/>
<path d="M66.5479 25.9354C66.5479 28.4471 64.5117 30.4833 62 30.4833C59.4883 30.4833 57.4521 28.4471 57.4521 25.9354C57.4521 23.4237 59.4883 21.3875 62 21.3875C64.5117 21.3875 66.5479 23.4237 66.5479 25.9354Z" stroke="white" stroke-width="2.32559"/>
<path d="M64.0047 41.7958C64.0047 44.3075 61.9685 46.3437 59.4568 46.3437C56.945 46.3437 54.9089 44.3075 54.9089 41.7958C54.9089 39.2841 56.945 37.2479 59.4568 37.2479C61.9685 37.2479 64.0047 39.2841 64.0047 41.7958Z" stroke="white" stroke-width="2.32559"/>
</svg>
