<?xml version="1.0" standalone="no"?>
<!DOCTYPE svg PUBLIC "-//W3C//DTD SVG 20010904//EN"
 "http://www.w3.org/TR/2001/REC-SVG-20010904/DTD/svg10.dtd">
<svg version="1.0" xmlns="http://www.w3.org/2000/svg"
 width="152.000000pt" height="152.000000pt" viewBox="0 0 152.000000 152.000000"
 preserveAspectRatio="xMidYMid meet">
<metadata>
Created by potrace 1.14, written by Peter Selinger 2001-2017
</metadata>
<g transform="translate(0.000000,152.000000) scale(0.100000,-0.100000)"
fill="#000000" stroke="none">
<path d="M0 760 l0 -760 760 0 760 0 0 760 0 760 -760 0 -760 0 0 -760z m834
585 c251 -53 445 -262 471 -509 8 -75 16 -82 88 -92 71 -10 78 -20 37 -55 -19
-17 -59 -47 -88 -66 -44 -28 -59 -46 -81 -96 -66 -146 -184 -258 -336 -319
-76 -31 -86 -32 -215 -32 -129 0 -139 1 -215 32 -144 58 -273 176 -325 297
-59 138 19 284 178 334 81 25 163 31 169 14 3 -8 -5 -13 -20 -13 -44 0 -152
-39 -194 -69 -106 -77 -132 -182 -72 -287 61 -107 187 -206 319 -250 81 -27
233 -25 325 4 85 26 178 84 241 149 46 48 110 150 101 159 -3 3 -27 -2 -54
-11 -26 -10 -89 -20 -139 -22 -75 -5 -104 -2 -161 15 -128 39 -283 163 -318
255 -10 26 -15 50 -12 54 12 12 128 -18 239 -62 156 -62 258 -80 258 -46 0 5
-34 16 -75 26 -41 9 -118 33 -172 54 -54 21 -131 45 -171 52 -39 7 -72 16 -72
20 0 4 21 25 46 49 113 104 254 116 416 35 25 -13 89 -55 140 -94 52 -39 101
-71 108 -71 18 0 8 92 -19 161 -59 155 -195 282 -356 332 -98 30 -243 30 -335
-2 -212 -74 -361 -254 -385 -466 -12 -106 -45 -133 -45 -37 1 193 145 415 330
506 128 63 259 80 394 51z"/>
</g>
</svg>
